<svg width="260" height="34" viewBox="0 0 260 34" fill="none" xmlns="http://www.w3.org/2000/svg">
<g clip-path="url(#clip0_151_1786)">
<path d="M74.0272 2.6084H79.3414L88.5866 21.5932C90.0551 24.8147 90.8759 27.8641 90.8759 27.8641C90.8759 27.8641 91.6968 24.8147 93.1652 21.5932L102.413 2.6084H107.728V32.6752H103.362V15.28C103.362 11.714 103.666 8.49244 103.666 8.49244C103.666 8.49244 102.587 11.5418 101.161 14.8057L92.6483 32.6724H89.061L80.5911 14.8057C79.1653 11.5418 78.1286 8.49244 78.1286 8.49244C78.1286 8.49244 78.3871 11.714 78.3871 15.28V32.6752H74.0215V2.6084H74.0272Z" fill="white"/>
<path d="M111.275 21.2095C111.275 14.3796 116.504 9.18164 123.329 9.18164C130.155 9.18164 135.429 14.3796 135.429 21.2095C135.429 28.0394 130.158 33.1498 123.329 33.1498C116.501 33.1498 111.275 27.9519 111.275 21.2095ZM123.329 29.197C127.78 29.197 131.237 25.7185 131.237 21.2067C131.237 16.6948 127.78 13.1316 123.329 13.1316C118.879 13.1316 115.465 16.6101 115.465 21.2067C115.465 25.8032 118.879 29.197 123.329 29.197Z" fill="white"/>
<path d="M149.904 13.1345C145.927 13.1345 143.337 15.8393 143.164 21.2942V32.6755H138.971V9.65315H142.729V13.8206C144.459 10.9858 147.353 9.18164 150.81 9.18164C156.513 9.18164 160.401 13.5636 160.401 19.6622V32.6755H156.255V19.9192C156.255 15.9664 153.661 13.1316 149.904 13.1316V13.1345Z" fill="white"/>
<path d="M164.898 0.462891H169.522V5.23168H164.898V0.462891ZM165.114 9.65318H169.306V32.6755H165.114V9.65318Z" fill="white"/>
<path d="M175.915 25.0749V13.177H171.595V9.65331H175.915V3.55469H180.107V9.65331H186.069V13.177H180.107V24.7305C180.107 28.1242 181.749 29.327 183.823 29.327C185.075 29.327 185.853 28.8979 186.154 28.768L186.501 32.2888C186.069 32.5034 184.902 32.9749 183.13 32.9749C178.679 32.9749 175.912 30.2701 175.912 25.0721L175.915 25.0749Z" fill="white"/>
<path d="M187.063 21.2095C187.063 14.3796 192.293 9.18164 199.118 9.18164C205.943 9.18164 211.218 14.3796 211.218 21.2095C211.218 28.0394 205.946 33.1498 199.118 33.1498C192.29 33.1498 187.063 27.9519 187.063 21.2095ZM199.118 29.197C203.569 29.197 207.025 25.7185 207.025 21.2067C207.025 16.6948 203.569 13.1316 199.118 13.1316C194.667 13.1316 191.253 16.6101 191.253 21.2067C191.253 25.8032 194.667 29.197 199.118 29.197Z" fill="white"/>
<path d="M214.759 9.65315H218.562V13.8629C219.903 10.8983 222.323 9.18164 225.303 9.18164C228.759 9.18164 230.921 11.415 231.438 15.4525L227.291 16.2261C227.075 14.2074 225.822 13.1768 224.093 13.1768C221.587 13.1768 218.952 16.1838 218.952 22.0255V32.6783H214.759V9.65315Z" fill="white"/>
<path d="M233.426 0.462891H238.05V5.23168H233.426V0.462891ZM233.642 9.65318H237.834V32.6755H233.642V9.65318Z" fill="white"/>
<path d="M240.99 25.7184L245.483 25.3316C245.872 27.9518 248.119 29.4538 251.101 29.4538C253.91 29.4538 255.509 28.1212 255.509 26.2323C255.509 24.5128 254.473 23.5274 252.485 23.0531L247.86 21.935C244.878 21.2037 242.157 19.9586 242.157 16.0933C242.157 11.9259 245.614 9.17871 250.496 9.17871C255.379 9.17871 258.534 11.4996 259.398 15.4919L255.163 16.051C254.689 14.0322 253.047 12.8718 250.539 12.8718C248.031 12.8718 246.608 14.1593 246.608 15.6218C246.608 17.2961 248.076 18.1121 249.849 18.5412L254.689 19.744C257.887 20.5176 260.003 22.0197 260.003 25.5857C260.003 30.1823 256.546 33.1441 250.885 33.1441C245.225 33.1441 241.595 30.1371 240.99 25.7128V25.7184Z" fill="white"/>
<path d="M25.7389 16.5059H15.5876L20.473 31.0776C20.8621 32.2381 21.9528 33.0173 23.1827 33.0173H28.2952C29.5251 33.0173 30.6158 32.2352 31.0049 31.0776L35.8903 16.5059H25.7389Z" fill="white"/>
<path d="M48.7229 16.5115H35.8904L40.7757 1.9397C41.1649 0.782093 42.2555 0 43.4854 0H45.3344C46.9108 0 48.277 1.51901 48.5554 2.88838L51.3701 12.9342C51.8445 14.6226 50.6771 16.3872 48.9189 16.5058C48.8536 16.5115 48.7883 16.5115 48.7229 16.5115Z" fill="white"/>
<path d="M2.75524 16.531H15.5878L10.6996 1.96206C10.3105 0.801624 9.2198 0.0195312 7.98995 0.0195312H6.1409C4.56452 0.0195312 3.19833 1.53854 2.91998 2.90791L0.10522 12.9537C-0.369113 14.6421 0.798258 16.4068 2.55642 16.5254C2.62174 16.531 2.68707 16.531 2.7524 16.531H2.75524Z" fill="white"/>
</g>
<defs>
<clipPath id="clip0_151_1786">
<rect width="260" height="33.15" fill="white"/>
</clipPath>
</defs>
</svg>
