<svg width="14" height="14" viewBox="0 0 14 14" fill="none" xmlns="http://www.w3.org/2000/svg">
<path d="M7 0C5.61553 0 4.26216 0.410543 3.11101 1.17971C1.95987 1.94888 1.06266 3.04213 0.532846 4.32122C0.003033 5.6003 -0.13559 7.00777 0.134506 8.36563C0.404603 9.7235 1.07129 10.9708 2.05026 11.9497C3.02922 12.9287 4.2765 13.5954 5.63437 13.8655C6.99224 14.1356 8.3997 13.997 9.67879 13.4672C10.9579 12.9373 12.0511 12.0401 12.8203 10.889C13.5895 9.73785 14 8.38447 14 7C13.998 5.1441 13.2599 3.36479 11.9475 2.05247C10.6352 0.74015 8.8559 0.0020073 7 0ZM7.29167 12.2354V11.4858C7.29167 10.8376 7.03416 10.2159 6.57579 9.75755C6.11742 9.29918 5.49574 9.04167 4.8475 9.04167H4.84167C4.60083 9.04168 4.36235 8.99424 4.13985 8.90205C3.91734 8.80987 3.71519 8.67475 3.54492 8.50442L1.764 6.72233C1.81158 5.79562 2.10432 4.89815 2.61234 4.12163C3.12035 3.34511 3.82541 2.71738 4.65548 2.30258C5.48554 1.88779 6.41085 1.7008 7.33684 1.76073C8.26284 1.82065 9.15633 2.12534 9.926 2.64367C9.77154 2.75702 9.58502 2.81831 9.39342 2.81867H8.55692C8.43765 2.81867 8.31956 2.84219 8.20939 2.88788C8.09922 2.93358 7.99915 3.00055 7.9149 3.08496C7.83064 3.16938 7.76386 3.26958 7.71838 3.37984C7.6729 3.49009 7.64961 3.60823 7.64984 3.7275V4.33533C7.64984 4.57591 7.55427 4.80663 7.38416 4.97674C7.21405 5.14685 6.98333 5.24242 6.74275 5.24242C6.62344 5.24211 6.50523 5.26535 6.39491 5.31079C6.28459 5.35624 6.18432 5.42301 6.09984 5.50727C6.01536 5.59153 5.94834 5.69163 5.90261 5.80184C5.85688 5.91204 5.83334 6.03018 5.83334 6.1495V6.75733C5.83334 6.99791 5.9289 7.22863 6.09902 7.39874C6.26913 7.56885 6.49985 7.66442 6.74042 7.66442H9.16475C9.40533 7.66442 9.63605 7.75998 9.80616 7.9301C9.97627 8.10021 10.0718 8.33093 10.0718 8.5715V9.45817C10.0718 9.57735 10.0953 9.69537 10.141 9.80547C10.1866 9.91557 10.2535 10.0156 10.3378 10.0998L10.8238 10.5858C9.90305 11.5704 8.63766 12.1614 7.29167 12.2354Z" fill="white"/>
</svg>
