<svg width="600" height="780" viewBox="0 0 600 780" fill="none" xmlns="http://www.w3.org/2000/svg">
<rect opacity="0.1" width="600" height="780" rx="35" fill="white"/>
<path d="M34.7873 388.995C34.7873 388.998 34.7896 389 34.7925 389H280.371C290.259 389 297.441 379.601 294.845 370.06L200.339 22.8715C196.697 9.48318 182.637 0 166.441 0H34.7873C15.5726 0 0 13.2138 0 29.5066V359.483C0 375.78 15.5759 388.987 34.7822 388.99C34.785 388.99 34.7873 388.992 34.7873 388.995Z" fill="#E6E6E6"/>
<path d="M600 404C600 395.716 593.284 389 585 389H319.602C309.723 389 302.541 398.385 305.124 407.921L399.659 757.011C403.301 770.468 417.361 780 433.557 780H565.213C584.428 780 600 766.718 600 750.341V404Z" fill="#E6E6E6"/>
</svg>
