<svg width="200" height="26" viewBox="0 0 200 26" fill="none" xmlns="http://www.w3.org/2000/svg">
<g clip-path="url(#clip0_151_2214)">
<path d="M56.9441 2.00681H61.0319L68.1437 16.6105C69.2732 19.0886 69.9047 21.4342 69.9047 21.4342C69.9047 21.4342 70.5361 19.0886 71.6657 16.6105L78.7796 2.00681H82.8674V25.1351H79.5093V11.7542C79.5093 9.01111 79.7431 6.533 79.7431 6.533C79.7431 6.533 78.9128 8.87862 77.816 11.3893L71.268 25.1329H68.5085L61.9933 11.3893C60.8965 8.87862 60.099 6.533 60.099 6.533C60.099 6.533 60.2978 9.01111 60.2978 11.7542V25.1351H56.9397V2.00681H56.9441Z" fill="white"/>
<path d="M85.5963 16.3151C85.5963 11.0614 89.6186 7.06293 94.8689 7.06293C100.119 7.06293 104.176 11.0614 104.176 16.3151C104.176 21.5689 100.121 25.5 94.8689 25.5C89.6165 25.5 85.5963 21.5016 85.5963 16.3151ZM94.8689 22.4594C98.2925 22.4594 100.952 19.7836 100.952 16.3129C100.952 12.8423 98.2925 10.1014 94.8689 10.1014C91.4452 10.1014 88.819 12.7771 88.819 16.3129C88.819 19.8488 91.4452 22.4594 94.8689 22.4594Z" fill="white"/>
<path d="M115.31 10.1036C112.252 10.1036 110.259 12.1842 110.126 16.3803V25.1351H106.901V7.42563H109.791V10.6313C111.122 8.45076 113.348 7.06293 116.007 7.06293C120.395 7.06293 123.386 10.4337 123.386 15.1249V25.1351H120.196V15.3226C120.196 12.2819 118.201 10.1014 115.31 10.1014V10.1036Z" fill="white"/>
<path d="M126.844 0.356201H130.401V4.0245H126.844V0.356201ZM127.01 7.42566H130.235V25.1351H127.01V7.42566Z" fill="white"/>
<path d="M135.319 19.2884V10.1362H131.996V7.42566H135.319V2.73441H138.544V7.42566H143.13V10.1362H138.544V19.0235C138.544 21.6341 139.807 22.5593 141.402 22.5593C142.366 22.5593 142.964 22.2292 143.196 22.1293L143.462 24.8376C143.13 25.0026 142.232 25.3654 140.869 25.3654C137.445 25.3654 135.317 23.2847 135.317 19.2863L135.319 19.2884Z" fill="white"/>
<path d="M143.895 16.3151C143.895 11.0614 147.917 7.06293 153.167 7.06293C158.418 7.06293 162.475 11.0614 162.475 16.3151C162.475 21.5689 158.42 25.5 153.167 25.5C147.915 25.5 143.895 21.5016 143.895 16.3151ZM153.167 22.4594C156.591 22.4594 159.25 19.7836 159.25 16.3129C159.25 12.8423 156.591 10.1014 153.167 10.1014C149.744 10.1014 147.118 12.7771 147.118 16.3129C147.118 19.8488 149.744 22.4594 153.167 22.4594Z" fill="white"/>
<path d="M165.2 7.42563H168.125V10.6639C169.156 8.38343 171.018 7.06293 173.31 7.06293C175.969 7.06293 177.631 8.78088 178.029 11.8867L174.839 12.4818C174.673 10.9289 173.71 10.1361 172.379 10.1361C170.452 10.1361 168.424 12.4492 168.424 16.9428V25.1373H165.2V7.42563Z" fill="white"/>
<path d="M179.558 0.356201H183.115V4.0245H179.558V0.356201ZM179.725 7.42566H182.949V25.1351H179.725V7.42566Z" fill="white"/>
<path d="M185.377 19.7836L188.833 19.4861C189.132 21.5016 190.861 22.657 193.155 22.657C195.316 22.657 196.546 21.6319 196.546 20.1789C196.546 18.8562 195.748 18.0982 194.219 17.7334L190.662 16.8733C188.368 16.3108 186.275 15.353 186.275 12.3797C186.275 9.174 188.934 7.06076 192.689 7.06076C196.445 7.06076 198.873 8.84604 199.537 11.9171L196.279 12.3471C195.914 10.7942 194.651 9.90158 192.722 9.90158C190.793 9.90158 189.698 10.892 189.698 12.017C189.698 13.3049 190.828 13.9326 192.191 14.2627L195.914 15.1879C198.374 15.783 200.002 16.9385 200.002 19.6815C200.002 23.2174 197.343 25.4956 192.989 25.4956C188.634 25.4956 185.842 23.1826 185.377 19.7793V19.7836Z" fill="white"/>
<path d="M19.7992 12.6968H11.9905L15.7484 23.9058C16.0478 24.7985 16.8868 25.3979 17.8328 25.3979H21.7655C22.7116 25.3979 23.5506 24.7963 23.8499 23.9058L27.6079 12.6968H19.7992Z" fill="white"/>
<path d="M37.4791 12.7011H27.6079L31.3659 1.49208C31.6652 0.60161 32.5042 0 33.4502 0H34.8726C36.0852 0 37.1361 1.16847 37.3502 2.22183L39.5154 9.94936C39.8803 11.2481 38.9823 12.6056 37.6299 12.6968C37.5796 12.7011 37.5294 12.7011 37.4791 12.7011Z" fill="white"/>
<path d="M2.11931 12.7163H11.9905L8.23037 1.50939C7.93104 0.616746 7.09205 0.0151367 6.14601 0.0151367H4.72367C3.51107 0.0151367 2.46015 1.18361 2.24603 2.23697L0.0808354 9.9645C-0.284036 11.2633 0.613942 12.6207 1.96637 12.7119C2.01662 12.7163 2.06687 12.7163 2.11713 12.7163H2.11931Z" fill="white"/>
</g>
<defs>
<clipPath id="clip0_151_2214">
<rect width="200" height="25.5" fill="white"/>
</clipPath>
</defs>
</svg>
